<mxfile modified="2022-05-02T07:43:22.562Z" host="app.diagrams.net" agent="5.0 (Windows NT 10.0; Win64; x64) AppleWebKit/537.36 (KHTML, like Gecko) Chrome/100.0.4896.127 Safari/537.36 Edg/100.0.1185.50" etag="OTVp8qry1nk_pnc1k18-" compressed="false" version="17.5.0" type="google">
  <diagram id="3J_TZWceDwHi-i7bHZRm" name="ISO-15288">
    <mxGraphModel grid="1" page="1" gridSize="10" guides="1" tooltips="1" connect="1" arrows="1" fold="1" pageScale="1" pageWidth="827" pageHeight="1169" math="0" shadow="0">
      <root>
        <mxCell id="i_HvpIMTSp6FbQCDcVzw-0" />
        <mxCell id="i_HvpIMTSp6FbQCDcVzw-1" parent="i_HvpIMTSp6FbQCDcVzw-0" />
        <mxCell id="i_HvpIMTSp6FbQCDcVzw-2" value="Enterprise Processes" style="rounded=0;whiteSpace=wrap;html=1;strokeColor=#666666;fillColor=#f5f5f5;align=center;container=1;collapsible=0;verticalAlign=top;recursiveResize=0;fontColor=#333333;" vertex="1" parent="i_HvpIMTSp6FbQCDcVzw-1">
          <mxGeometry x="120" y="200" width="140" height="240" as="geometry" />
        </mxCell>
        <mxCell id="i_HvpIMTSp6FbQCDcVzw-3" value="Enterprise Environment Management Process" style="rounded=0;whiteSpace=wrap;html=1;align=center;" vertex="1" parent="i_HvpIMTSp6FbQCDcVzw-2">
          <mxGeometry x="10" y="30" width="120" height="40" as="geometry" />
        </mxCell>
        <mxCell id="i_HvpIMTSp6FbQCDcVzw-4" value="Investment &lt;br&gt;Management Process" style="rounded=0;whiteSpace=wrap;html=1;align=center;" vertex="1" parent="i_HvpIMTSp6FbQCDcVzw-2">
          <mxGeometry x="10" y="80" width="120" height="40" as="geometry" />
        </mxCell>
        <mxCell id="i_HvpIMTSp6FbQCDcVzw-5" value="System Life Cycle &lt;br&gt;Management Process" style="rounded=0;whiteSpace=wrap;html=1;align=center;" vertex="1" parent="i_HvpIMTSp6FbQCDcVzw-2">
          <mxGeometry x="10" y="130" width="120" height="40" as="geometry" />
        </mxCell>
        <mxCell id="i_HvpIMTSp6FbQCDcVzw-6" value="Resource&amp;nbsp;&lt;br&gt;Management Process" style="rounded=0;whiteSpace=wrap;html=1;align=center;recursiveResize=0;" vertex="1" parent="i_HvpIMTSp6FbQCDcVzw-2">
          <mxGeometry x="10" y="180" width="120" height="40" as="geometry" />
        </mxCell>
        <mxCell id="i_HvpIMTSp6FbQCDcVzw-7" value="Project Processes" style="rounded=0;whiteSpace=wrap;html=1;strokeColor=#666666;fillColor=#f5f5f5;align=center;container=1;collapsible=0;verticalAlign=top;recursiveResize=0;fontColor=#333333;" vertex="1" parent="i_HvpIMTSp6FbQCDcVzw-1">
          <mxGeometry x="280" y="200" width="130" height="390" as="geometry" />
        </mxCell>
        <mxCell id="i_HvpIMTSp6FbQCDcVzw-8" value="Project Planning Process" style="rounded=0;whiteSpace=wrap;html=1;align=center;" vertex="1" parent="i_HvpIMTSp6FbQCDcVzw-7">
          <mxGeometry x="10" y="30" width="110" height="40" as="geometry" />
        </mxCell>
        <mxCell id="i_HvpIMTSp6FbQCDcVzw-9" value="Project Assessment Process" style="rounded=0;whiteSpace=wrap;html=1;align=center;" vertex="1" parent="i_HvpIMTSp6FbQCDcVzw-7">
          <mxGeometry x="10" y="80" width="110" height="40" as="geometry" />
        </mxCell>
        <mxCell id="i_HvpIMTSp6FbQCDcVzw-10" value="Project Control Process" style="rounded=0;whiteSpace=wrap;html=1;align=center;" vertex="1" parent="i_HvpIMTSp6FbQCDcVzw-7">
          <mxGeometry x="10" y="130" width="110" height="40" as="geometry" />
        </mxCell>
        <mxCell id="i_HvpIMTSp6FbQCDcVzw-11" value="Decision Making Process" style="rounded=0;whiteSpace=wrap;html=1;align=center;" vertex="1" parent="i_HvpIMTSp6FbQCDcVzw-7">
          <mxGeometry x="10" y="180" width="110" height="40" as="geometry" />
        </mxCell>
        <mxCell id="i_HvpIMTSp6FbQCDcVzw-12" value="Risk Management Process" style="rounded=0;whiteSpace=wrap;html=1;align=center;" vertex="1" parent="i_HvpIMTSp6FbQCDcVzw-7">
          <mxGeometry x="10" y="230" width="110" height="40" as="geometry" />
        </mxCell>
        <mxCell id="i_HvpIMTSp6FbQCDcVzw-13" value="Configuration Management Process" style="rounded=0;whiteSpace=wrap;html=1;align=center;" vertex="1" parent="i_HvpIMTSp6FbQCDcVzw-7">
          <mxGeometry x="10" y="280" width="110" height="40" as="geometry" />
        </mxCell>
        <mxCell id="i_HvpIMTSp6FbQCDcVzw-14" value="Information Management Process" style="rounded=0;whiteSpace=wrap;html=1;align=center;" vertex="1" parent="i_HvpIMTSp6FbQCDcVzw-7">
          <mxGeometry x="10" y="330" width="110" height="40" as="geometry" />
        </mxCell>
        <mxCell id="i_HvpIMTSp6FbQCDcVzw-15" value="Agreement Processes" style="rounded=0;whiteSpace=wrap;html=1;strokeColor=#666666;fillColor=#f5f5f5;align=center;container=1;collapsible=0;verticalAlign=top;recursiveResize=0;fontColor=#333333;" vertex="1" parent="i_HvpIMTSp6FbQCDcVzw-1">
          <mxGeometry x="120" y="460" width="140" height="130" as="geometry" />
        </mxCell>
        <mxCell id="i_HvpIMTSp6FbQCDcVzw-16" value="Acquisition Process" style="rounded=0;whiteSpace=wrap;html=1;align=center;" vertex="1" parent="i_HvpIMTSp6FbQCDcVzw-15">
          <mxGeometry x="10" y="30" width="120" height="40" as="geometry" />
        </mxCell>
        <mxCell id="i_HvpIMTSp6FbQCDcVzw-17" value="Supply Process" style="rounded=0;whiteSpace=wrap;html=1;align=center;" vertex="1" parent="i_HvpIMTSp6FbQCDcVzw-15">
          <mxGeometry x="10" y="80" width="120" height="40" as="geometry" />
        </mxCell>
        <mxCell id="i_HvpIMTSp6FbQCDcVzw-18" value="Technical Processes" style="rounded=0;whiteSpace=wrap;html=1;strokeColor=#666666;fillColor=#f5f5f5;align=center;container=1;collapsible=0;verticalAlign=top;recursiveResize=0;fontColor=#333333;" vertex="1" parent="i_HvpIMTSp6FbQCDcVzw-1">
          <mxGeometry x="430" y="200" width="160" height="390" as="geometry" />
        </mxCell>
        <mxCell id="i_HvpIMTSp6FbQCDcVzw-19" value="&lt;font style=&quot;font-size: 11px&quot;&gt;Stakeholder Requirements Definition Process&lt;/font&gt;" style="rounded=0;whiteSpace=wrap;html=1;align=center;" vertex="1" parent="i_HvpIMTSp6FbQCDcVzw-18">
          <mxGeometry x="10" y="30" width="140" height="30" as="geometry" />
        </mxCell>
        <mxCell id="i_HvpIMTSp6FbQCDcVzw-20" value="Requirements Analysis Process" style="rounded=0;whiteSpace=wrap;html=1;align=center;" vertex="1" parent="i_HvpIMTSp6FbQCDcVzw-18">
          <mxGeometry x="10" y="70" width="140" height="30" as="geometry" />
        </mxCell>
        <mxCell id="i_HvpIMTSp6FbQCDcVzw-21" value="Architectural Design Process" style="rounded=0;whiteSpace=wrap;html=1;align=center;" vertex="1" parent="i_HvpIMTSp6FbQCDcVzw-18">
          <mxGeometry x="10" y="110" width="140" height="30" as="geometry" />
        </mxCell>
        <mxCell id="i_HvpIMTSp6FbQCDcVzw-22" value="Implementation Process" style="rounded=0;whiteSpace=wrap;html=1;align=center;recursiveResize=0;" vertex="1" parent="i_HvpIMTSp6FbQCDcVzw-18">
          <mxGeometry x="10" y="150" width="140" height="30" as="geometry" />
        </mxCell>
        <mxCell id="i_HvpIMTSp6FbQCDcVzw-23" value="Integration Process" style="rounded=0;whiteSpace=wrap;html=1;align=center;recursiveResize=0;" vertex="1" parent="i_HvpIMTSp6FbQCDcVzw-18">
          <mxGeometry x="10" y="190" width="140" height="30" as="geometry" />
        </mxCell>
        <mxCell id="i_HvpIMTSp6FbQCDcVzw-24" value="Verification Process" style="rounded=0;whiteSpace=wrap;html=1;align=center;recursiveResize=0;" vertex="1" parent="i_HvpIMTSp6FbQCDcVzw-18">
          <mxGeometry x="10" y="230" width="140" height="30" as="geometry" />
        </mxCell>
        <mxCell id="i_HvpIMTSp6FbQCDcVzw-25" value="Operation Process" style="rounded=0;whiteSpace=wrap;html=1;align=center;recursiveResize=0;" vertex="1" parent="i_HvpIMTSp6FbQCDcVzw-18">
          <mxGeometry x="10" y="270" width="140" height="30" as="geometry" />
        </mxCell>
        <mxCell id="i_HvpIMTSp6FbQCDcVzw-26" value="Maintenance Process" style="rounded=0;whiteSpace=wrap;html=1;align=center;recursiveResize=0;" vertex="1" parent="i_HvpIMTSp6FbQCDcVzw-18">
          <mxGeometry x="10" y="310" width="140" height="30" as="geometry" />
        </mxCell>
        <mxCell id="i_HvpIMTSp6FbQCDcVzw-27" value="Disposal Process" style="rounded=0;whiteSpace=wrap;html=1;align=center;recursiveResize=0;" vertex="1" parent="i_HvpIMTSp6FbQCDcVzw-18">
          <mxGeometry x="10" y="350" width="140" height="30" as="geometry" />
        </mxCell>
        <mxCell id="i_HvpIMTSp6FbQCDcVzw-28" value="Note:&lt;br&gt;&lt;br&gt;Although authoritative, ISO-15288 does not address:&amp;nbsp;&amp;nbsp;&lt;br&gt;&lt;br&gt;- Deployment Process&lt;br&gt;&lt;br&gt;- &lt;font style=&quot;font-size: 11px&quot;&gt;Configuration&lt;/font&gt; Process&lt;br&gt;&lt;br&gt;- Accreditation Process&lt;br&gt;&lt;br&gt;- &lt;font style=&quot;font-size: 11px&quot;&gt;Measurement&lt;/font&gt; Process&lt;br&gt;&lt;br&gt;- iterative development" style="shape=note;whiteSpace=wrap;html=1;size=14;verticalAlign=top;align=left;spacingTop=-6;strokeColor=#666666;fillColor=none;" vertex="1" parent="i_HvpIMTSp6FbQCDcVzw-1">
          <mxGeometry x="600" y="200" width="80" height="390" as="geometry" />
        </mxCell>
        <mxCell id="i_HvpIMTSp6FbQCDcVzw-29" value="&lt;font style=&quot;font-size: 12px&quot;&gt;Diagram: Delivery - ISO-15288 System &amp;amp; Software Lifecycle Processes&lt;/font&gt;" style="text;strokeColor=none;fillColor=none;html=1;fontSize=12;fontStyle=2;verticalAlign=middle;align=left;shadow=0;glass=0;comic=0;opacity=30;fontColor=#808080;" vertex="1" parent="i_HvpIMTSp6FbQCDcVzw-1">
          <mxGeometry x="121" y="620" width="558" height="20" as="geometry" />
        </mxCell>
      </root>
    </mxGraphModel>
  </diagram>
</mxfile>
